# xmcd
#
# Track frame offsets:
#	150
#	16914
#	32700
#	55329
#	74506
#	95916
#	111047
#	126516
#	141184
#	159911
#	178137
#	200235
#	220729
#	244052
#	260085
#	278362
#	296574
#	314541
#
# Disc length: 4456 seconds
#
# Revision: 0
# Processed by: cddbd v1.5.1PL0 Copyright (c) Steve Scherf et al.
# Submitted via: dBpowerAMP V4.0
#
DISCID=1c116612
DTITLE=BeeGees - Greatest Hits
DYEAR=2000
DGENRE=Disco
TTITLE0=Jive Talkin
TTITLE1=Saturday night fever
TTITLE2=Tragedy
TTITLE3=You should be dancing
TTITLE4=Stayin Alive
TTITLE5=If I Can't have you
TTITLE6=You stepped
TTITLE7=More then a woman
TTITLE8=Love you inside out
TTITLE9=How deep is your love
TTITLE10=Too much heaven
TTITLE11=Night on broadway
TTITLE12=Spirits
TTITLE13=Love so right
TTITLE14=Our love
TTITLE15=Fanny
TTITLE16=Love me
TTITLE17=Rest your love on me
EXTD=Bee Gees (Greatest Hits)
EXTT0=
EXTT1=
EXTT2=
EXTT3=
EXTT4=
EXTT5=
EXTT6=
EXTT7=
EXTT8=
EXTT9=
EXTT10=
EXTT11=
EXTT12=
EXTT13=
EXTT14=
EXTT15=
EXTT16=
EXTT17=
PLAYORDER=
